<?xml version="1.0" standalone="no"?>
<!DOCTYPE svg PUBLIC "-//W3C//DTD SVG 1.1//EN" "http://www.w3.org/Graphics/SVG/1.1/DTD/svg11.dtd" >
<svg xmlns="http://www.w3.org/2000/svg" xmlns:xlink="http://www.w3.org/1999/xlink" version="1.1">
<metadata>
Created by FontForge 20170731 at Fri Jan  1 02:30:17 1904
 By ,,,
Copyright (c) 1991 Adobe Systems Incorporated.  All Rights Reserved.Kabel is a trademark of Linotype-Hell AG and/or its subsidiaries.
</metadata>
<defs>
<font id="Kabel-Light" horiz-adv-x="444" >
  <font-face 
    font-family="Kabel-Light"
    font-weight="300"
    font-stretch="normal"
    units-per-em="1000"
    panose-1="2 11 4 0 0 0 0 0 0 0"
    ascent="800"
    descent="-200"
    x-height="360"
    cap-height="726"
    bbox="-42 -250 1000 895"
    underline-thickness="50"
    underline-position="-150"
    unicode-range="U+0020-2122"
  />
<missing-glyph horiz-adv-x="502" 
d="M-1 0h500v500h-500v-500zM9 10v480h480v-480h-480z" />
    <glyph glyph-name=".notdef" horiz-adv-x="502" 
d="M-1 0h500v500h-500v-500zM9 10v480h480v-480h-480z" />
    <glyph glyph-name=".null" horiz-adv-x="0" 
 />
    <glyph glyph-name="nonmarkingreturn" horiz-adv-x="333" 
 />
    <glyph glyph-name="space" unicode=" " horiz-adv-x="259" 
 />
    <glyph glyph-name="exclam" unicode="!" horiz-adv-x="186" 
d="M76 166l35 12v548l-35 -12v-548zM93 -6l36 36l-36 36l-36 -36z" />
    <glyph glyph-name="quotedbl" unicode="&#x22;" horiz-adv-x="296" 
d="M68 472h32v248h-32v-248zM196 472h32v248h-32v-248z" />
    <glyph glyph-name="numbersign" unicode="#" horiz-adv-x="518" 
d="M167 438h-109v-32h104l-23 -166h-108v-32h103l-28 -208h32l28 208h154l-29 -208h32l29 208h108v32h-104l23 166h108v32h-103l28 208h-32l-28 -208h-153l28 208h-32zM194 406h153l-23 -166h-153z" />
    <glyph glyph-name="dollar" unicode="$" horiz-adv-x="518" 
d="M254 387l-10 3q-62 20 -91 57.5t-29 90.5q0 60 33.5 107.5t96.5 55.5v-314zM281 340l3 -1q62 -18 96.5 -52t34.5 -98q0 -25 -8 -52t-24.5 -51.5t-42 -42t-59.5 -23.5v320zM254 -66h27v50q79 12 124 72t45 133q0 45 -12.5 76.5t-33 52t-44.5 32t-55 21.5l-24 8v324
q35 0 64.5 -12.5t69.5 -49.5l27 26q-31 30 -67.5 50t-93.5 21v48h-27v-50q-72 -8 -118.5 -63t-46.5 -135q0 -44 13.5 -76.5t35.5 -54t47.5 -34.5t54.5 -21l14 -4v-330l-5 -1q-50 0 -85 26t-67 64q-1 1 -2 3l-26 -26l1 -1q15 -19 30.5 -34.5t37 -31t50 -25.5t61.5 -10
q4 0 5 1v-49z" />
    <glyph glyph-name="percent" unicode="%" horiz-adv-x="907" 
d="M570 184q0 77 32 121.5t81 44.5t81 -44.5t32 -121.5q0 -76 -32 -120.5t-81 -44.5t-81 44.5t-32 120.5zM708 654h-35l-474 -662h35zM111 461q0 77 32 121.5t81 44.5t81 -44.5t32 -121.5q0 -76 -32 -120.5t-81 -44.5t-81 44.5t-32 120.5zM543 184q0 -90 40.5 -141t99.5 -51
t99.5 51t40.5 141t-40 141.5t-100 51.5t-100 -51.5t-40 -141.5zM84 461q0 -90 40.5 -141t99.5 -51t99.5 51t40.5 141t-40 141.5t-100 51.5t-100 -51.5t-40 -141.5z" />
    <glyph glyph-name="ampersand" unicode="&#x26;" horiz-adv-x="481" 
d="M455 18l-112 118l128 208l-26 17l-126 -201l-115 118q59 31 93 65.5t34 89.5q0 53 -36.5 86t-89.5 33t-89.5 -39t-36.5 -92q0 -41 20 -72.5t57 -67.5q-62 -33 -95 -68.5t-33 -93.5q0 -57 35.5 -95t91.5 -38q53 0 88 28t75 84l5 7l107 -111zM300 128l-2 -2
q-36 -53 -66.5 -80.5t-76.5 -27.5q-43 0 -69 28.5t-26 72.5q0 47 24.5 75t73.5 58l16 10zM205 520q40 0 67 -23.5t27 -63.5q0 -44 -30 -74t-83 -63v0q-38 35 -56.5 61.5t-18.5 63.5q0 44 25.5 71.5t68.5 27.5z" />
    <glyph glyph-name="quotesingle" unicode="'" horiz-adv-x="148" 
d="M58 472h32v248h-32v-248z" />
    <glyph glyph-name="parenleft" unicode="(" horiz-adv-x="296" 
d="M282 -123q-57 50 -97 93t-68 91t-42.5 105t-14.5 129t14.5 129t42.5 105t67.5 90.5t97.5 93.5l-17 22q-61 -49 -104.5 -94.5t-73 -97t-44.5 -112.5t-15 -136t15 -136t44.5 -112.5t72.5 -97t105 -94.5z" />
    <glyph glyph-name="parenright" unicode=")" horiz-adv-x="296" 
d="M31 -145q61 49 104.5 94.5t73 97t44.5 112.5t15 136t-15 136t-44.5 112.5t-72.5 97t-105 94.5l-17 -22q57 -50 97 -93t68 -91t42.5 -105t14.5 -129t-14.5 -129t-42.5 -105t-67.5 -90.5t-97.5 -93.5z" />
    <glyph glyph-name="asterisk" unicode="*" horiz-adv-x="333" 
d="M290 521l-93 57l105 59l-20 24l-103 -60v119l-27 -6v-113l-109 68l-10 -30l107 -61l-109 -59l20 -24l101 60v-121l27 6v115l101 -63z" />
    <glyph glyph-name="plus" unicode="+" horiz-adv-x="600" 
d="M47 237h237v-237h32v237h237v32h-237v237h-32v-237h-237v-32z" />
    <glyph glyph-name="comma" unicode="," horiz-adv-x="148" 
d="M140 116l-40 -8l-92 -248h32z" />
    <glyph glyph-name="hyphen" unicode="-" horiz-adv-x="259" 
d="M47 174h165v32h-165v-32z" />
    <glyph glyph-name="period" unicode="." horiz-adv-x="148" 
d="M74 -6l36 36l-36 36l-36 -36z" />
    <glyph glyph-name="slash" unicode="/" horiz-adv-x="333" 
d="M8 -18h32l285 756h-32z" />
    <glyph glyph-name="zero" unicode="0" horiz-adv-x="556" 
d="M72 323q0 47 11 98t35.5 96.5t64.5 73.5t95 28t95 -28t64.5 -73t35.5 -96.5t11 -98.5q0 -62 -16 -116.5t-44.5 -95t-66 -62.5t-79.5 -22t-79.5 22t-66 62.5t-44.5 95t-16 116.5zM37 323q0 -74 20 -135.5t54 -105t77.5 -67t89.5 -23.5t89.5 23.5t77.5 67t54 105t20 135.5
q0 76 -18.5 137.5t-51.5 104.5t-76.5 66t-94.5 23q-50 0 -94.5 -23t-77 -66t-51 -104.5t-18.5 -137.5z" />
    <glyph glyph-name="one" unicode="1" horiz-adv-x="241" 
d="M122 -8l35 14v654l-127 -79l12 -36l80 45v-598z" />
    <glyph glyph-name="two" unicode="2" 
d="M418 35h-323v3q25 23 45 41q69 62 111 102.5t79 86t59.5 93.5t22.5 96q0 41 -14.5 77t-41 63t-61 42t-73.5 15q-43 0 -79.5 -15.5t-63 -42.5t-40.5 -63t-14 -76q0 -75 45 -123t121 -67l29 32q-70 9 -115 49.5t-45 108.5q0 24 9.5 52t29 53t51 41t72.5 16q24 0 50 -8.5
t50 -28t39.5 -53t15.5 -81.5q0 -42 -26.5 -89t-72 -97.5t-98 -98.5t-140.5 -124l-44 -39h410z" />
    <glyph glyph-name="three" unicode="3" horiz-adv-x="426" 
d="M140 312q24 3 51 3q42 0 73 -12t51 -32.5t29.5 -44.5t9.5 -48q0 -37 -13.5 -66t-36 -47.5t-49.5 -28t-53 -9.5q-50 0 -82.5 21t-68.5 60l-27 -28q35 -39 77 -63.5t90 -24.5q87 0 142.5 50.5t55.5 135.5q0 15 -2.5 32t-12.5 40t-33 45.5t-60 36.5q52 19 79.5 55.5
t27.5 90.5q0 76 -51 126t-126 50q-52 0 -92 -19.5t-80 -58.5l21 -26q36 34 71 51.5t80 17.5q62 0 102 -38t40 -97q0 -45 -18 -72.5t-48 -40.5t-64 -16.5t-83 -4.5v-38z" />
    <glyph glyph-name="four" unicode="4" 
d="M291 212h-228l226 349h2v-349zM291 -8l35 14v171h102v35h-102v454l-324 -489h289v-185z" />
    <glyph glyph-name="five" unicode="5" horiz-adv-x="407" 
d="M358 646h-300v-306q29 18 53.5 26.5t57.5 8.5q74 0 120 -48.5t46 -117.5q0 -83 -48.5 -132.5t-115.5 -49.5q-37 0 -71 20t-57 45l-27 -28q32 -31 72 -51.5t89 -20.5q33 0 67 13.5t62.5 41t46 68.5t17.5 94q0 54 -19.5 92.5t-50 62.5t-64 35t-61.5 11q-50 0 -82 -17v218
h243z" />
    <glyph glyph-name="six" unicode="6" horiz-adv-x="518" 
d="M261 408q36 0 70 -13.5t61 -39t42 -60.5t15 -76q0 -40 -14 -75t-39.5 -61.5t-60.5 -41t-74 -14.5q-44 0 -80 17t-61 45t-38 61t-13 65q0 46 16 82.5t44 61t62 37t70 12.5zM374 664q-68 -48 -123.5 -93.5t-105 -100.5t-80.5 -120t-31 -135q0 -50 19 -92t51 -71t73 -44.5
t84 -15.5q42 0 82 15.5t72 45.5t50.5 72.5t18.5 93.5q0 50 -19 92t-51 71.5t-72 45t-81 15.5q-39 0 -69 -10.5t-52 -25.5l-2 2q60 72 127 128.5t134 100.5z" />
    <glyph glyph-name="seven" unicode="7" horiz-adv-x="426" 
d="M14 611h350l-237 -611h41l244 646h-398v-35z" />
    <glyph glyph-name="eight" unicode="8" 
d="M222 344q-63 0 -104.5 38t-41.5 100q0 61 41.5 99t104.5 38t104 -38t41 -99q0 -62 -41 -100t-104 -38zM222 654q-36 0 -68.5 -12t-58 -35t-40 -55t-14.5 -70q0 -40 12 -68t30.5 -45t36.5 -25.5t36 -13.5v-2h-1q-18 -6 -35.5 -14t-37.5 -25.5t-34 -47.5t-14 -73
q0 -75 53.5 -125.5t134.5 -50.5t134.5 50.5t53.5 125.5q0 43 -14 73.5t-34.5 48t-38 25t-36.5 13.5v0v2q19 5 37 13.5t36 25.5t30 45t12 68q0 38 -14.5 70t-40 55t-58 35t-67.5 12zM222 309q62 0 107.5 -38t45.5 -103t-45.5 -103t-107.5 -38t-107.5 38t-45.5 103t45.5 103
t107.5 38z" />
    <glyph glyph-name="nine" unicode="9" horiz-adv-x="518" 
d="M257 238q-36 0 -70 13.5t-60.5 39t-42 60.5t-15.5 76q0 40 14 75t39.5 61.5t60.5 41t74 14.5q44 0 80 -17t61 -45t38 -61t13 -65q0 -46 -16 -82.5t-44 -61t-62 -37t-70 -12.5zM144 -18q68 48 123.5 93.5t105 100.5t80.5 120t31 135q0 50 -19 92t-51 71t-73 44.5t-84 15.5
q-42 0 -82 -15.5t-72 -45.5t-50.5 -72.5t-18.5 -93.5q0 -50 19 -91.5t51 -71.5t72 -45.5t81 -15.5q39 0 69 11t52 25l2 -2q-60 -72 -127 -128t-134 -101z" />
    <glyph glyph-name="colon" unicode=":" horiz-adv-x="148" 
d="M74 360l-36 -36l36 -36l36 36zM74 66l-36 -36l36 -36l36 36z" />
    <glyph glyph-name="semicolon" unicode=";" horiz-adv-x="148" 
d="M140 116l-40 -8l-92 -248h32zM110 360l-36 -36l36 -36l36 36z" />
    <glyph glyph-name="less" unicode="&#x3c;" horiz-adv-x="600" 
d="M47 236l506 -246v32l-474 231l474 231v32l-506 -245v-35z" />
    <glyph glyph-name="equal" unicode="=" horiz-adv-x="600" 
d="M553 366h-506v-32h506v32zM553 172h-506v-32h506v32z" />
    <glyph glyph-name="greater" unicode="&#x3e;" horiz-adv-x="600" 
d="M553 271l-506 245v-32l474 -231l-474 -231v-32l506 246v35z" />
    <glyph glyph-name="question" unicode="?" horiz-adv-x="426" 
d="M227 244q0 33 1.5 51t6.5 30t13 20t23 19q53 39 85 80.5t32 98.5q0 44 -15.5 80.5t-43 62t-62.5 39t-72 13.5q-45 0 -79.5 -14.5t-57 -37t-35.5 -47t-21 -48.5l35 -10q7 21 18 42t29 40t46 31t65 12q30 0 58 -12.5t51 -35.5t36 -52.5t13 -62.5q0 -41 -21 -73.5t-58 -60.5
l-2 -1q-28 -21 -41.5 -33.5t-22.5 -26.5t-12.5 -33.5t-3.5 -51.5v-97l35 12v66zM208 -6l36 36l-36 36l-36 -36z" />
    <glyph glyph-name="at" unicode="@" horiz-adv-x="800" 
d="M229 287q0 40 14.5 85.5t40.5 85.5t61.5 65t75.5 25q44 0 68 -29.5t24 -89.5q0 -36 -14.5 -82.5t-40 -88t-58.5 -68t-68 -26.5q-44 0 -73.5 34t-29.5 89zM539 493h-2q-9 41 -40.5 64t-67.5 23q-48 0 -91 -25.5t-74.5 -69.5t-49 -97t-17.5 -106q0 -62 36.5 -106t93.5 -44
q79 0 130 71h2q1 -35 20.5 -53t51.5 -18q38 0 81 21t81 60.5t61.5 94.5t23.5 120q0 63 -25.5 119.5t-75 99.5t-120.5 67t-157 24q-77 0 -146 -29t-121.5 -81.5t-81.5 -121.5t-29 -146t29 -146t81.5 -121.5t121.5 -81.5t146 -29q101 0 175 28.5t137 98.5h-46
q-49 -51 -118 -73t-148 -22q-70 0 -133.5 26.5t-111.5 74.5t-74.5 111.5t-26.5 133.5t26.5 133.5t74.5 111.5t111.5 74.5t133.5 26.5q79 0 143.5 -22t110 -62t69 -92.5t23.5 -111.5q0 -54 -19.5 -100.5t-51.5 -81t-68.5 -53.5t-68.5 -19q-23 0 -33 8t-10 23t10 48q1 5 2 8
l93 309h-40z" />
    <glyph glyph-name="A" unicode="A" horiz-adv-x="722" 
d="M8 6l34 -12l162 345h307l169 -345l34 12l-357 720zM357 663l138 -289h-273z" />
    <glyph glyph-name="B" unicode="B" horiz-adv-x="463" 
d="M70 0h141q90 0 150.5 49t60.5 136q0 72 -40 117.5t-101 58.5v2q61 17 97.5 65.5t36.5 111.5q0 92 -61 136t-162 44h-122v-720zM105 345h88q83 0 138.5 -40.5t55.5 -119.5q0 -73 -49 -111.5t-127 -38.5h-106v310zM105 685h101q77 0 125.5 -35.5t48.5 -109.5
q0 -70 -49 -115t-123 -45h-103v305z" />
    <glyph glyph-name="C" unicode="C" horiz-adv-x="667" 
d="M627 88q-58 -38 -104 -54.5t-107 -16.5q-70 0 -132.5 26.5t-110 74t-74 110t-26.5 132.5t26.5 132.5t74 110t110 74t132.5 26.5q56 0 109.5 -19t98.5 -55l26 28q-51 38 -110.5 59.5t-128.5 21.5q-75 0 -143 -29t-120 -81t-81 -121t-29 -147t29 -147.5t81.5 -121.5
t121.5 -80.5t146 -28.5q62 0 122.5 21t111.5 60z" />
    <glyph glyph-name="D" unicode="D" horiz-adv-x="556" 
d="M70 0h38q106 0 183.5 32t126 84.5t70.5 116t22 127.5q0 81 -28.5 147.5t-79 114.5t-117 73t-141.5 25h-74v-720zM105 685h20q74 0 138 -22.5t112 -65.5t74 -103.5t26 -133.5t-26 -133.5t-74 -103.5t-112 -65.5t-138 -22.5h-20v650z" />
    <glyph glyph-name="E" unicode="E" 
d="M75 0h342l18 35h-325v316h265v35h-265v299h301l-12 35h-324v-720z" />
    <glyph glyph-name="F" unicode="F" horiz-adv-x="370" 
d="M75 -6l35 12v333h218v35h-218v311h258l-8 35h-285v-726z" />
    <glyph glyph-name="G" unicode="G" horiz-adv-x="759" 
d="M461 339h185v-242q-46 -38 -103 -59t-119 -21q-70 0 -132.5 26.5t-110 74t-74 110t-26.5 132.5t26.5 132.5t74 110t110 74t132.5 26.5q61 0 107 -16.5t104 -54.5l23 25q-51 39 -111.5 60t-122.5 21q-77 0 -146 -29t-121.5 -81.5t-81.5 -121.5t-29 -146t29 -146
t81.5 -121.5t121.5 -81.5t146 -29q35 0 72 8.5t71.5 22.5t63.5 31t50 35v295h-220v-35z" />
    <glyph glyph-name="H" unicode="H" horiz-adv-x="704" 
d="M110 726l-35 -12v-720l35 12v333h484v-345l35 12v720l-35 -12v-340h-484v352z" />
    <glyph glyph-name="I" unicode="I" horiz-adv-x="185" 
d="M110 726l-35 -12v-720l35 12v720z" />
    <glyph glyph-name="J" unicode="J" 
d="M374 726l-35 -12v-484q0 -64 -17 -106.5t-44 -66t-55 -32t-52 -8.5q-48 0 -78.5 19t-68.5 65l-24 -28q38 -45 76 -68t89 -23q18 0 49.5 7t68.5 30.5t64 74.5t27 131v501z" />
    <glyph glyph-name="K" unicode="K" horiz-adv-x="481" 
d="M75 -6l35 12v360l336 -372l26 24l-319 349l308 333l-26 20l-325 -352v358l-35 -12v-720z" />
    <glyph glyph-name="L" unicode="L" horiz-adv-x="463" 
d="M75 0h361l18 35h-344v691l-35 -12v-714z" />
    <glyph glyph-name="M" unicode="M" horiz-adv-x="888" 
d="M444 72l-292 654l-105 -720l35 -12l80 622h2l280 -622l278 622h2l82 -622l35 12l-104 720z" />
    <glyph glyph-name="N" unicode="N" horiz-adv-x="759" 
d="M684 726l-35 -12v-634l-574 652v-738l35 12v638l574 -656v738z" />
    <glyph glyph-name="O" unicode="O" horiz-adv-x="832" 
d="M73 360q0 70 26.5 132.5t74 110t110 74t132.5 26.5t132.5 -26.5t110 -74t74 -110t26.5 -132.5t-26.5 -132.5t-74 -110t-110 -74t-132.5 -26.5t-132.5 26.5t-110 74t-74 110t-26.5 132.5zM38 360q0 -77 29 -146t81.5 -121.5t121.5 -81.5t146 -29t146 29t121.5 81.5
t81.5 121.5t29 146t-29 146t-81.5 121.5t-121.5 81.5t-146 29t-146 -29t-121.5 -81.5t-81.5 -121.5t-29 -146z" />
    <glyph glyph-name="P" unicode="P" 
d="M115 685h32q47 0 90 -14.5t76.5 -41.5t52.5 -66t19 -87q0 -98 -64.5 -153.5t-161.5 -55.5h-44v418zM115 232h34q131 0 201 68.5t70 175.5q0 51 -18.5 95.5t-55 78t-90 52t-119.5 18.5h-57v-726l35 12v226z" />
    <glyph glyph-name="Q" unicode="Q" horiz-adv-x="832" 
d="M73 360q0 70 26.5 132.5t74 110t110 74t132.5 26.5t132.5 -26.5t110 -74t74 -110t26.5 -132.5t-26.5 -132.5t-74 -110t-110 -74t-132.5 -26.5t-132.5 26.5t-110 74t-74 110t-26.5 132.5zM769 10l-103 67q60 53 94 126.5t34 156.5q0 77 -29 146t-81.5 121.5t-121.5 81.5
t-146 29t-146 -29t-121.5 -81.5t-81.5 -121.5t-29 -146t29 -146t81.5 -121.5t121.5 -81.5t146 -29q122 0 218 70l108 -70z" />
    <glyph glyph-name="R" unicode="R" 
d="M115 685h30q43 0 82 -8.5t71 -27.5t50.5 -51t18.5 -77q0 -63 -26 -102.5t-66 -58t-76.5 -23.5t-82.5 -7h-1v355zM80 -6l35 12v318l291 -330l29 20l-259 289q98 9 162 64t64 149q0 63 -23.5 103.5t-63.5 62.5t-89.5 30t-110.5 8h-35v-726z" />
    <glyph glyph-name="S" unicode="S" 
d="M398 667q-31 30 -68.5 50.5t-95.5 20.5q-39 0 -73.5 -14.5t-60.5 -42t-40.5 -64t-14.5 -79.5q0 -44 13.5 -76.5t35.5 -54t47.5 -34.5t54.5 -21l44 -13q62 -18 96.5 -52t34.5 -98q0 -28 -10 -58t-30.5 -56t-52 -42t-73.5 -16q-50 0 -85 26t-67 64q-1 1 -2 3l-26 -26l1 -1
q15 -19 30.5 -34.5t37 -31t50 -25.5t61.5 -10q47 0 85 17.5t63.5 47.5t39 67t13.5 75q0 45 -12.5 76.5t-33 52t-44.5 32t-55 21.5l-61 19q-62 20 -91 57.5t-29 90.5q0 31 9.5 60t28.5 53t48 38t68 14q37 0 66.5 -12t70.5 -50z" />
    <glyph glyph-name="T" unicode="T" horiz-adv-x="481" 
d="M223 -6l35 12v679h216l-6 35h-455l-6 -35h216v-691z" />
    <glyph glyph-name="U" unicode="U" horiz-adv-x="648" 
d="M582 726l-35 -12v-454q0 -74 -24.5 -123t-61.5 -75t-74 -35.5t-67 -9.5q-97 0 -158 56t-61 154v499l-35 -12v-490q0 -64 23 -111t61 -76t82 -42t88 -13q36 0 71 10.5t66 29.5q60 37 87 92h3v-120l35 12v720z" />
    <glyph glyph-name="V" unicode="V" horiz-adv-x="704" 
d="M350 -18l345 732l-35 12l-307 -666l-309 666l-35 -12z" />
    <glyph glyph-name="W" unicode="W" horiz-adv-x="926" 
d="M331 -18l142 337l144 -337l297 732l-35 12l-262 -666l-126 302l148 352l-32 12l-133 -322l-135 322l-35 -12l152 -354l-125 -300l-284 666l-35 -12z" />
    <glyph glyph-name="X" unicode="X" horiz-adv-x="592" 
d="M14 14l29 -20l253 347l253 -347l29 20l-260 357l244 335l-29 20l-237 -325l-237 325l-29 -20l244 -335z" />
    <glyph glyph-name="Y" unicode="Y" horiz-adv-x="556" 
d="M544 714l-32 12l-230 -453l-235 453l-35 -12l248 -478l-119 -230l35 -12z" />
    <glyph glyph-name="Z" unicode="Z" horiz-adv-x="574" 
d="M28 685h436l-448 -685h531l11 35h-482l448 685h-496v-35z" />
    <glyph glyph-name="bracketleft" unicode="[" horiz-adv-x="278" 
d="M96 -130h168v32h-136v786h136v32h-168v-850z" />
    <glyph glyph-name="backslash" unicode="\" horiz-adv-x="333" 
d="M293 -18h32l-285 756h-32z" />
    <glyph glyph-name="bracketright" unicode="]" horiz-adv-x="278" 
d="M182 720h-168v-32h136v-786h-136v-32h168v850z" />
    <glyph glyph-name="asciicircum" unicode="^" horiz-adv-x="600" 
d="M39 193h35l226 421l226 -421h35l-245 453h-32z" />
    <glyph glyph-name="underscore" unicode="_" horiz-adv-x="500" 
d="M500 -125v50h-500v-50h500z" />
    <glyph glyph-name="grave" unicode="`" horiz-adv-x="148" 
d="M-23 554l91 -118l27 12l-83 120z" />
    <glyph glyph-name="a" unicode="a" horiz-adv-x="352" 
d="M295 285q0 17 -2 30.5t-11 27t-29 22.5t-54 9q-14 0 -47 -4q-3 -1 -7 -1l-12 -32q10 0 28 2q26 3 38 3q42 0 51.5 -16.5t9.5 -66.5v-57h-2q-13 21 -36 35.5t-63 14.5q-57 0 -94 -39.5t-37 -93.5q0 -57 38 -95t90 -38q41 0 63 15t42 41h2v-48l32 12v279zM60 119
q0 42 29.5 71.5t72.5 29.5q42 0 71.5 -29.5t29.5 -71.5t-29.5 -71.5t-71.5 -29.5q-43 0 -72.5 29.5t-29.5 71.5z" />
    <glyph glyph-name="b" unicode="b" horiz-adv-x="480" 
d="M96 180q0 33 12.5 62.5t35 52t52 35t62.5 12.5t62.5 -12.5t52 -35t35 -52t12.5 -62.5t-12.5 -62.5t-35 -52t-52 -35t-62.5 -12.5t-62.5 12.5t-52 35t-35 52t-12.5 62.5zM64 714v-542q0 -37 15.5 -70.5t43 -60t62.5 -41t73 -14.5q39 0 74.5 15t62.5 42t42 62.5t15 74.5
t-15 74.5t-42 62.5t-62.5 42t-74.5 15q-48 0 -89 -22.5t-68 -64.5h-2v439z" />
    <glyph glyph-name="c" unicode="c" horiz-adv-x="352" 
d="M342 66q-28 -24 -57.5 -36t-65.5 -12q-64 0 -111.5 44t-47.5 117q0 46 16 78t41.5 50.5t53 26.5t51.5 8q31 0 57.5 -8.5t53.5 -24.5l5 35q-20 12 -52 21t-64 9q-41 0 -76.5 -14.5t-62 -40.5t-41 -61.5t-14.5 -75.5q0 -48 16.5 -85.5t44 -62t59.5 -36.5t63 -12q37 0 73 12
t58 28v40z" />
    <glyph glyph-name="d" unicode="d" horiz-adv-x="480" 
d="M60 180q0 33 12.5 62.5t35 52t52 35t62.5 12.5t62.5 -12.5t52 -35t35 -52t12.5 -62.5t-12.5 -62.5t-35 -52t-52 -35t-62.5 -12.5t-62.5 12.5t-52 35t-35 52t-12.5 62.5zM381 714v-430h-2q-25 43 -66 66.5t-91 23.5q-39 0 -74.5 -15t-62.5 -42t-42 -62.5t-15 -74.5
t15 -74.5t42 -62.5t62.5 -42t74.5 -15q50 0 92 23.5t65 63.5h2v-79l35 12v720z" />
    <glyph glyph-name="e" unicode="e" horiz-adv-x="370" 
d="M365 294q-20 35 -60.5 57.5t-91.5 22.5q-45 0 -81.5 -17t-62 -45.5t-38.5 -63.5t-13 -69q0 -33 13 -67.5t38 -63t61.5 -45.5t80.5 -17q38 0 72 12t48 26v40q-26 -26 -57.5 -36t-62.5 -10q-45 0 -83.5 26.5t-61.5 68.5zM55 142q-5 25 -5 41q0 31 13 60t36.5 51.5t54 35
t64.5 12.5q32 0 59.5 -13t38.5 -29z" />
    <glyph glyph-name="f" unicode="f" horiz-adv-x="222" 
d="M220 360h-109v223q0 43 27 74t80 34v35q-19 -2 -40 -7t-45 -19.5t-40.5 -43.5t-16.5 -74v-588l35 12v322h109v32z" />
    <glyph glyph-name="g" unicode="g" horiz-adv-x="370" 
d="M335 379l-101 -11q-11 3 -21.5 4.5t-27.5 1.5q-37 0 -66 -12.5t-47.5 -33t-27.5 -44.5t-9 -47q0 -48 27 -81t51 -39v-2q-17 -5 -27 -11t-22 -16q-1 -1 -5 -4l20 -23q21 17 42.5 26.5t55.5 9.5q51 0 86.5 -28t35.5 -78q0 -42 -32.5 -76.5t-89.5 -34.5q-28 0 -49.5 7.5
t-35.5 18.5t-21.5 21.5t-10.5 18.5l-16 -35q14 -21 46.5 -42t86.5 -21q65 0 111 40t46 100q0 52 -24.5 84.5t-64.5 41.5v2q17 6 30 13.5t26.5 21t22 35t8.5 51.5q0 39 -18 68t-37 39v2l42 4zM185 342q51 0 83 -29t32 -76q0 -52 -35 -78.5t-88 -26.5q-47 0 -78.5 29.5
t-31.5 75.5t34 75.5t84 29.5z" />
    <glyph glyph-name="h" unicode="h" horiz-adv-x="389" 
d="M53 -6l35 12v214q0 53 36 87.5t85 34.5q38 0 65 -24.5t27 -68.5v-255l35 12v252q0 55 -36.5 85.5t-90.5 30.5q-39 0 -69.5 -17.5t-49.5 -46.5h-2v416l-35 -12v-720z" />
    <glyph glyph-name="i" unicode="i" horiz-adv-x="149" 
d="M92 366l-35 -12v-360l35 12v360zM39 520l35 -36l36 36l-36 36z" />
    <glyph glyph-name="j" unicode="j" horiz-adv-x="149" 
d="M92 366l-35 -12v-390q0 -33 -11 -50t-36 -24v-42q40 11 61 40.5t21 71.5v406zM39 520l35 -36l36 36l-36 36z" />
    <glyph glyph-name="k" unicode="k" horiz-adv-x="315" 
d="M57 -6l35 12v162l188 -174l25 25l-166 152l158 170l-25 25l-180 -196v556l-35 -12v-720z" />
    <glyph glyph-name="l" unicode="l" horiz-adv-x="149" 
d="M92 726l-35 -12v-720l35 12v720z" />
    <glyph glyph-name="m" unicode="m" horiz-adv-x="537" 
d="M53 -6l35 12v231q0 45 27 75t64 30q32 0 52 -22t20 -63v-263l35 12v233q0 50 27.5 76.5t59.5 26.5q39 0 57.5 -25t18.5 -63v-260l35 12v247q0 60 -30.5 90.5t-80.5 30.5q-32 0 -57.5 -17.5t-41.5 -43.5q-13 29 -36 45t-57 16t-57 -17.5t-34 -39.5h-2v49l-35 -12v-360z
" />
    <glyph glyph-name="n" unicode="n" horiz-adv-x="389" 
d="M53 -6l35 12v214q0 53 36 87.5t85 34.5q38 0 65 -24.5t27 -68.5v-255l35 12v252q0 55 -36.5 85.5t-90.5 30.5q-39 0 -69.5 -17.5t-49.5 -46.5h-2v56l-35 -12v-360z" />
    <glyph glyph-name="o" unicode="o" 
d="M60 180q0 33 12.5 63t35 52.5t52 34.5t62.5 12t62.5 -12.5t52 -34.5t35 -52t12.5 -63t-12.5 -63t-35 -52t-52 -34.5t-62.5 -12.5t-62.5 12.5t-52 34.5t-35 52t-12.5 63zM28 180q0 -40 15 -75.5t42 -62t62.5 -41.5t74.5 -15q40 0 75.5 15t62 41.5t41.5 62t15 75.5
t-15 75.5t-41.5 62t-62 41.5t-75.5 15q-39 0 -74.5 -15t-62.5 -41.5t-42 -62t-15 -75.5z" />
    <glyph glyph-name="p" unicode="p" horiz-adv-x="480" 
d="M420 180q0 -33 -12.5 -63t-35 -52t-52 -34.5t-62.5 -12.5t-62.5 12.5t-52 35t-35 52t-12.5 62.5t12.5 62.5t35 52t52 35t62.5 12.5t62.5 -12.5t52 -34.5t35 -52t12.5 -63zM64 -152l35 12v213h2q24 -40 65.5 -63.5t91.5 -23.5q40 0 75.5 15t62 41.5t41.5 62t15 75.5
t-15 75.5t-41.5 62t-62 41.5t-75.5 15q-50 0 -91 -23.5t-66 -66.5h-2v82l-35 -12v-506z" />
    <glyph glyph-name="q" unicode="q" horiz-adv-x="480" 
d="M60 180q0 33 12.5 62.5t35 52t52 35t62.5 12.5t62.5 -12.5t52 -35t35 -52t12.5 -62.5t-12.5 -62.5t-35 -52t-52 -35t-62.5 -12.5t-62.5 12.5t-52 35t-35 52t-12.5 62.5zM416 366l-35 -12v-70h-2q-25 43 -66 66.5t-91 23.5q-39 0 -74.5 -15t-62.5 -42t-42 -62.5t-15 -74.5
t15 -74.5t42 -62.5t62.5 -42t74.5 -15q50 0 92 23.5t65 63.5h2v-225l35 12v506z" />
    <glyph glyph-name="r" unicode="r" horiz-adv-x="204" 
d="M57 -6l35 12v220q0 55 28.5 81t73.5 27v40q-45 -3 -64.5 -18.5t-35.5 -45.5h-2v56l-35 -12v-360z" />
    <glyph glyph-name="s" unicode="s" horiz-adv-x="258" 
d="M223 331q-20 23 -41.5 33t-41.5 10q-44 0 -77.5 -28.5t-33.5 -77.5q0 -24 8 -41t21 -28t25.5 -16.5t33.5 -12.5v0h1q40 -13 58.5 -28.5t18.5 -53.5q0 -20 -8 -33.5t-19.5 -21.5t-24.5 -11.5t-23 -3.5q-24 0 -40.5 11t-29.5 27l-22 -27q24 -21 44 -32t47 -11q53 0 82 34.5
t29 75.5q0 26 -9 44t-25 30t-33 19t-44 17h-2q-31 10 -42 26t-11 44q0 30 23 48t48 18q24 0 40 -11.5t29 -28.5z" />
    <glyph glyph-name="t" unicode="t" horiz-adv-x="241" 
d="M77 474v-114h-25l-12 -32h37v-222q0 -20 2 -37.5t12 -37t31 -32.5t57 -13q8 0 14 0.5t28 4.5l10 33q-12 -3 -19 -4.5t-17 -1.5q-53 0 -68 23t-15 74v213h110v32h-110v126z" />
    <glyph glyph-name="u" unicode="u" horiz-adv-x="389" 
d="M336 366l-35 -12v-214q0 -52 -35.5 -87t-80.5 -35q-43 0 -70 24.5t-27 71.5v252l-35 -12v-252q0 -56 37 -86t95 -30q42 0 67.5 17.5t46.5 46.5h2v-56l35 12v360z" />
    <glyph glyph-name="v" unicode="v" horiz-adv-x="370" 
d="M360 354l-32 12l-143 -316l-140 316l-35 -12l175 -382z" />
    <glyph glyph-name="w" unicode="w" horiz-adv-x="685" 
d="M672 354l-31 12l-154 -312l-147 320l-157 -320l-136 312l-34 -12l168 -372l158 314l146 -314z" />
    <glyph glyph-name="x" unicode="x" horiz-adv-x="352" 
d="M19 14l24 -20l133 165l133 -165l24 20l-137 170l131 162l-25 20l-126 -157l-127 157l-24 -20l131 -162z" />
    <glyph glyph-name="y" unicode="y" horiz-adv-x="370" 
d="M170 42l-94 -182l32 -12l260 506l-32 12l-145 -286l-157 286l-32 -18z" />
    <glyph glyph-name="z" unicode="z" horiz-adv-x="352" 
d="M16 0h310l8 32h-255l257 328h-292l-9 -32h238z" />
    <glyph glyph-name="braceleft" unicode="{" horiz-adv-x="278" 
d="M30 275q23 -1 39 -14t24.5 -33t12 -42.5t3.5 -45.5v-152q0 -70 20 -94t61 -24h58v32h-55q-31 0 -41.5 20t-10.5 84v151q0 58 -20 90.5t-45 47.5q25 15 45 47.5t20 90.5v151q0 64 10.5 84t41.5 20h55v32h-58q-41 0 -61 -24t-20 -94v-152q0 -22 -3.5 -45t-12 -43t-24.5 -33
t-39 -14v-40z" />
    <glyph glyph-name="bar" unicode="|" horiz-adv-x="222" 
d="M95 -250h32v1000h-32v-1000z" />
    <glyph glyph-name="braceright" unicode="}" horiz-adv-x="278" 
d="M248 315q-23 1 -38.5 14t-24.5 33t-12.5 43t-3.5 45v152q0 70 -20 94t-61 24h-58v-32h55q31 0 41.5 -20t10.5 -84v-151q0 -58 20 -90.5t45 -47.5q-25 -15 -45 -47.5t-20 -90.5v-151q0 -64 -10.5 -84t-41.5 -20h-55v-32h58q41 0 61 24t20 94v152q0 23 3.5 45.5t12.5 42.5
t24.5 33t38.5 14v40z" />
    <glyph glyph-name="asciitilde" unicode="~" horiz-adv-x="600" 
d="M99 200q18 31 39 51t56 20q25 0 48.5 -8.5t56.5 -25.5q35 -17 58.5 -25.5t48.5 -8.5q39 0 67.5 23.5t54.5 61.5l-27 18q-19 -28 -43.5 -49.5t-51.5 -21.5q-21 0 -41 7.5t-51 23.5q-38 18 -64 27.5t-56 9.5q-43 0 -69.5 -20.5t-52.5 -62.5z" />
    <glyph glyph-name="exclamdown" unicode="&#xa1;" horiz-adv-x="186" 
d="M110 432l-35 -12v-548l35 12v548zM93 604l-36 -36l36 -36l36 36z" />
    <glyph glyph-name="cent" unicode="&#xa2;" horiz-adv-x="518" 
d="M271 18q-57 7 -97 49.5t-40 111.5q0 43 13 73.5t33.5 49t43.5 28t47 12.5v-324zM271 -86h27v72q34 2 65.5 14.5t52.5 26.5v40q-24 -21 -56 -34.5t-62 -14.5v324q30 0 53 -8t51 -22l5 -3l5 35q-19 11 -53 20t-61 10v72h-27v-72q-74 -10 -121.5 -63.5t-47.5 -128.5
q0 -45 15 -81t39.5 -60.5t54.5 -38.5t60 -16v-72z" />
    <glyph glyph-name="sterling" unicode="&#xa3;" horiz-adv-x="518" 
d="M37 0h452l12 32h-425l52 270h289v32h-282l38 198q18 93 61 133.5t107 40.5q32 0 65.5 -14.5t61.5 -43.5l22 23q-30 33 -70 50t-84 17q-79 0 -128 -50.5t-67 -145.5l-40 -208h-62v-32h56z" />
    <glyph glyph-name="currency" unicode="&#xa4;" horiz-adv-x="518" 
d="M471 135l-49 48q26 28 39.5 64.5t13.5 75.5q0 38 -13.5 74.5t-39.5 65.5l49 47l-24 24l-47 -48q-30 26 -66.5 39.5t-74.5 13.5q-80 -2 -141 -52l-47 47l-25 -22l50 -49q-26 -29 -39.5 -65.5t-13.5 -74.5q2 -81 53 -141l-50 -49l25 -22l47 49q62 -54 141 -54q80 0 141 54
l47 -49zM78 323q0 37 14 70t39 58t58 39t70 14t70.5 -14t58 -39t38.5 -58t14 -70t-14 -70.5t-38.5 -58.5t-58 -39t-70.5 -14t-70 14t-58 39t-39 58.5t-14 70.5z" />
    <glyph glyph-name="yen" unicode="&#xa5;" horiz-adv-x="518" 
d="M501 714l-34 12l-208 -433l-208 433l-34 -12l209 -432h-138v-32h153v-78h-153v-32h153v-146l35 12v134h153v32h-153v78h153v32h-138z" />
    <glyph glyph-name="brokenbar" unicode="&#xa6;" horiz-adv-x="222" 
d="M95 -175h32v350h-32v-350zM95 325h32v350h-32v-350z" />
    <glyph glyph-name="section" unicode="&#xa7;" horiz-adv-x="370" 
d="M324 556q-43 98 -133 98q-55 0 -92.5 -33.5t-37.5 -87.5q0 -35 19 -59.5t46 -29.5v-2q-45 -15 -68.5 -48t-23.5 -76q0 -49 35 -85t103 -42q67 -6 94 -27.5t27 -60.5q0 -41 -30 -65t-78 -24q-41 0 -67 19.5t-47 57.5l-26 -22q46 -87 140 -87q59 0 99.5 31.5t40.5 87.5
q0 42 -22.5 68.5t-54.5 34.5v2q38 9 63 42t25 73q0 60 -34.5 91.5t-106.5 40.5q-53 7 -77.5 25.5t-24.5 54.5q0 42 27.5 65.5t67.5 23.5q44 0 68 -21.5t43 -66.5zM179 422q59 0 92 -28.5t33 -73.5q0 -38 -29.5 -69t-89.5 -31q-45 0 -82 27t-37 78q0 14 6.5 30.5t20.5 32
t35.5 25t50.5 9.5z" />
    <glyph glyph-name="dieresis" unicode="&#xa8;" horiz-adv-x="148" 
d="M-35 502l36 -36l36 36l-36 36zM111 502l36 -36l36 36l-36 36z" />
    <glyph glyph-name="copyright" unicode="&#xa9;" horiz-adv-x="800" 
d="M54 360q0 70 26.5 133.5t74.5 111.5t111.5 74.5t133.5 26.5t133.5 -26.5t111.5 -74.5t74.5 -111.5t26.5 -133.5t-26.5 -133.5t-74.5 -111.5t-111.5 -74.5t-133.5 -26.5t-133.5 26.5t-111.5 74.5t-74.5 111.5t-26.5 133.5zM593 440q-11 72 -64.5 113.5t-128.5 41.5
q-99 0 -159 -65.5t-60 -169.5q0 -50 16 -94t45 -76t69.5 -50t88.5 -18q77 0 130 44t63 117h-32q-12 -65 -54.5 -97t-106.5 -32q-84 0 -137 61q-24 28 -37 65t-13 80q0 91 50 147t137 56q63 0 106 -31t55 -92h32zM22 360q0 -77 29 -146t81.5 -121.5t121.5 -81.5t146 -29
t146 29t121.5 81.5t81.5 121.5t29 146t-29 146t-81.5 121.5t-121.5 81.5t-146 29t-146 -29t-121.5 -81.5t-81.5 -121.5t-29 -146z" />
    <glyph glyph-name="ordfeminine" unicode="&#xaa;" horiz-adv-x="229" 
d="M96 627q10 1 16 1q17 2 27 2q28 0 34 -9.5t6 -35.5v-34h-2q-6 10 -22 20t-41 10q-39 0 -63.5 -23.5t-24.5 -56.5q0 -34 25 -56.5t61 -22.5q26 0 40.5 9t24.5 24h2v-33l24 8v171q0 10 -1.5 18t-7.5 16.5t-19 13.5t-36 5q-11 0 -35 -3zM50 501q0 25 19 42.5t46 17.5
q26 0 45 -17.5t19 -42.5q0 -24 -19 -41.5t-45 -17.5q-27 0 -46 17.5t-19 41.5z" />
    <glyph glyph-name="guillemotleft" unicode="&#xab;" horiz-adv-x="315" 
d="M151 180l122 -121l20 20l-102 101l102 101l-20 20zM22 180l122 -121l20 20l-102 101l102 101l-20 20z" />
    <glyph glyph-name="logicalnot" unicode="&#xac;" horiz-adv-x="600" 
d="M521 108h32v258h-506v-32h474v-226z" />
    <glyph glyph-name="minus" unicode="&#xad;" horiz-adv-x="600" 
d="M47 237h506v32h-506v-32z" />
    <glyph glyph-name="minus" unicode="&#x2212;" horiz-adv-x="600" 
d="M47 237h506v32h-506v-32z" />
    <glyph glyph-name="registered" unicode="&#xae;" horiz-adv-x="800" 
d="M250 138h32v200h131l133 -200h38l-133 200q54 9 83.5 38t29.5 80q0 69 -36.5 96t-107.5 27h-170v-441zM282 547h146q49 0 76.5 -20.5t27.5 -70.5q0 -44 -30 -65t-103 -21h-117v177zM54 360q0 70 26.5 133.5t74.5 111.5t111.5 74.5t133.5 26.5t133.5 -26.5t111.5 -74.5
t74.5 -111.5t26.5 -133.5t-26.5 -133.5t-74.5 -111.5t-111.5 -74.5t-133.5 -26.5t-133.5 26.5t-111.5 74.5t-74.5 111.5t-26.5 133.5zM22 360q0 -77 29 -146t81.5 -121.5t121.5 -81.5t146 -29t146 29t121.5 81.5t81.5 121.5t29 146t-29 146t-81.5 121.5t-121.5 81.5t-146 29
t-146 -29t-121.5 -81.5t-81.5 -121.5t-29 -146z" />
    <glyph glyph-name="macron" unicode="&#xaf;" horiz-adv-x="148" 
d="M-35 485h218v32h-218v-32z" />
    <glyph glyph-name="degree" unicode="&#xb0;" horiz-adv-x="400" 
d="M55 509q0 -60 42.5 -102.5t102.5 -42.5t102.5 42.5t42.5 102.5t-42.5 102.5t-102.5 42.5t-102.5 -42.5t-42.5 -102.5zM82 509q0 49 34.5 83.5t83.5 34.5t83.5 -34.5t34.5 -83.5t-34.5 -83.5t-83.5 -34.5t-83.5 34.5t-34.5 83.5z" />
    <glyph glyph-name="plusminus" unicode="&#xb1;" horiz-adv-x="600" 
d="M47 282h237v-192h32v192h237v32h-237v192h-32v-192h-237v-32zM47 0h506v32h-506v-32z" />
    <glyph glyph-name="twosuperior" unicode="&#xb2;" horiz-adv-x="333" 
d="M304 289h-198v2q7 6 29 24q83 69 126 118.5t43 102.5q0 50 -36.5 84t-91.5 34q-59 0 -95.5 -34.5t-36.5 -83.5q0 -45 29 -73.5t79 -40.5l23 19q-46 6 -75 30t-29 65q0 12 6 28t19 30t33 23.5t47 9.5q15 0 32.5 -5t33 -16t25.5 -29.5t10 -45.5q0 -25 -17 -53.5t-49 -60.5
q-40 -41 -151 -130q-21 -17 -31 -25h267z" />
    <glyph glyph-name="threesuperior" unicode="&#xb3;" horiz-adv-x="333" 
d="M121 448h33q41 0 73.5 -20.5t32.5 -59.5t-30.5 -61.5t-68.5 -22.5q-33 0 -53.5 12.5t-44.5 36.5l-17 -23q22 -23 50 -38t62 -15q56 0 92.5 30.5t36.5 80.5q0 70 -70 92v2q69 22 69 87q0 45 -33 75t-82 30q-37 0 -64 -11.5t-52 -34.5l14 -22q25 21 47 31t51 10
q40 0 66 -22.5t26 -55.5q0 -25 -11.5 -40t-31 -22t-41.5 -9t-54 -3v-27z" />
    <glyph glyph-name="acute" unicode="&#xb4;" horiz-adv-x="148" 
d="M136 568l-83 -120l27 -12l91 118z" />
    <glyph glyph-name="mu" unicode="&#xb5;" horiz-adv-x="389" 
d="M336 366l-35 -12v-214q0 -52 -35.5 -87t-80.5 -35q-43 0 -70 24.5t-27 71.5v252l-35 -12v-506l35 12v159q36 -33 97 -33q42 0 67.5 17.5t46.5 46.5h2v-56l35 12v360z" />
    <glyph glyph-name="paragraph" unicode="&#xb6;" horiz-adv-x="370" 
d="M167 -10h32v624h82v-624h32v656h-131q-72 0 -119.5 -41.5t-47.5 -115.5q0 -30 13 -57t35 -48t49 -34t55 -15v-345zM167 367q-49 6 -84.5 43t-35.5 79q0 52 32.5 86.5t87.5 38.5v-247z" />
    <glyph glyph-name="periodcentered" unicode="&#xb7;" horiz-adv-x="259" 
d="M97 274q0 -13 9.5 -23t22.5 -10t23 10t10 23t-10 23t-23 10t-22.5 -10t-9.5 -23z" />
    <glyph glyph-name="periodcentered" unicode="&#x2219;" horiz-adv-x="259" 
d="M97 274q0 -13 9.5 -23t22.5 -10t23 10t10 23t-10 23t-23 10t-22.5 -10t-9.5 -23z" />
    <glyph glyph-name="cedilla" unicode="&#xb8;" horiz-adv-x="148" 
d="M58 -178q16 23 25.5 48t9.5 45q0 10 -2 25.5t-5 25.5h-38q13 -35 13 -62q0 -18 -6.5 -33.5t-16.5 -31.5z" />
    <glyph glyph-name="onesuperior" unicode="&#xb9;" horiz-adv-x="185" 
d="M84 257l27 9v388l-85 -47l7 -22l51 27v-355z" />
    <glyph glyph-name="ordmasculine" unicode="&#xba;" horiz-adv-x="360" 
d="M282 538q0 -36 -31 -64t-71 -28q-41 0 -71.5 28t-30.5 64t30.5 64t71.5 28q40 0 71 -28t31 -64zM54 538q0 -48 37 -82t89 -34t89 34t37 82t-37 82t-89 34t-89 -34t-37 -82z" />
    <glyph glyph-name="guillemotright" unicode="&#xbb;" horiz-adv-x="315" 
d="M42 301l-20 -20l102 -101l-102 -101l20 -20l122 121zM171 301l-20 -20l102 -101l-102 -101l20 -20l122 121z" />
    <glyph glyph-name="onequarter" unicode="&#xbc;" horiz-adv-x="834" 
d="M620 130h-144l142 182h2v-182zM620 -5l27 9v99h62v27h-62v262l-221 -289h194v-108zM644 654h-35l-474 -662h35zM183 257l27 9v388l-85 -47l7 -22l51 27v-355z" />
    <glyph glyph-name="onehalf" unicode="&#xbd;" horiz-adv-x="834" 
d="M627 654h-35l-474 -662h35zM173 257l27 9v388l-85 -47l7 -22l51 27v-355zM739 27h-198v2q7 6 29 24q83 69 126 118.5t43 102.5q0 50 -36.5 84t-91.5 34q-59 0 -95.5 -34.5t-36.5 -83.5q0 -45 29 -73.5t79 -40.5l23 19q-46 6 -75 30t-29 65q0 12 6 28t19 30t33 23.5
t47 9.5q15 0 32.5 -5t33 -16t25.5 -29.5t10 -45.5q0 -25 -17 -53.5t-49 -60.5q-40 -41 -151 -130q-21 -17 -31 -25h267z" />
    <glyph glyph-name="threequarters" unicode="&#xbe;" horiz-adv-x="834" 
d="M696 654h-35l-474 -662h35zM148 448h33q41 0 73.5 -20.5t32.5 -59.5t-30.5 -61.5t-68.5 -22.5q-33 0 -53.5 12.5t-44.5 36.5l-17 -23q22 -23 50 -38t62 -15q56 0 92.5 30.5t36.5 80.5q0 70 -70 92v2q69 22 69 87q0 45 -33 75t-82 30q-37 0 -64 -11.5t-52 -34.5l14 -22
q25 21 47 31t51 10q40 0 66 -22.5t26 -55.5q0 -25 -11.5 -40t-31 -22t-41.5 -9t-54 -3v-27zM672 130h-144l142 182h2v-182zM672 -5l27 9v99h62v27h-62v262l-221 -289h194v-108z" />
    <glyph glyph-name="questiondown" unicode="&#xbf;" horiz-adv-x="426" 
d="M199 354q0 -33 -1.5 -51t-6.5 -29.5t-13 -20t-23 -19.5q-53 -39 -85 -80.5t-32 -98.5q0 -44 16 -80.5t43 -62t62 -39t72 -13.5q45 0 79.5 14.5t57 37t35.5 47t21 48.5l-35 10q-7 -21 -18 -42t-29 -40t-46 -31t-65 -12q-29 0 -57.5 12.5t-51.5 35.5t-36 52.5t-13 62.5
q0 41 21 74t58 60l2 1q28 21 41.5 33.5t22.5 26.5t12.5 33.5t3.5 51.5v97l-35 -12v-66zM218 604l-36 -36l36 -36l36 36z" />
    <glyph glyph-name="Agrave" unicode="&#xc0;" horiz-adv-x="722" 
d="M264 881l91 -118l27 12l-83 120zM8 6l34 -12l162 345h307l169 -345l34 12l-357 720zM357 663l138 -289h-273z" />
    <glyph glyph-name="Aacute" unicode="&#xc1;" horiz-adv-x="722" 
d="M423 895l-83 -120l27 -12l91 118zM8 6l34 -12l162 345h307l169 -345l34 12l-357 720zM357 663l138 -289h-273z" />
    <glyph glyph-name="Acircumflex" unicode="&#xc2;" horiz-adv-x="722" 
d="M290 763l71 97l71 -97l24 13l-82 119h-27l-81 -119zM8 6l34 -12l162 345h307l169 -345l34 12l-357 720zM357 663l138 -289h-273z" />
    <glyph glyph-name="Atilde" unicode="&#xc3;" horiz-adv-x="722" 
d="M447 864q-9 -17 -20 -23.5t-17 -6.5q-10 0 -39 14l-7 3q-34 14 -49 14q-22 0 -41 -9.5t-29 -44.5l31 -6v0q8 14 14 19.5t17 5.5q13 0 41 -11q6 -3 9 -4q16 -8 28 -12t21 -4q25 0 41.5 13t29.5 37zM8 6l34 -12l162 345h307l169 -345l34 12l-357 720zM357 663l138 -289
h-273z" />
    <glyph glyph-name="Adieresis" unicode="&#xc4;" horiz-adv-x="722" 
d="M252 829l36 -36l36 36l-36 36zM398 829l36 -36l36 36l-36 36zM8 6l34 -12l162 345h307l169 -345l34 12l-357 720zM357 663l138 -289h-273z" />
    <glyph glyph-name="Aring" unicode="&#xc5;" horiz-adv-x="722" 
d="M295 813q0 -27 19.5 -46.5t46.5 -19.5t46.5 19.5t19.5 46.5t-19.5 46.5t-46.5 19.5t-46.5 -19.5t-19.5 -46.5zM319 813q0 17 12.5 29.5t29.5 12.5t29.5 -12.5t12.5 -29.5t-12.5 -29.5t-29.5 -12.5t-29.5 12.5t-12.5 29.5zM8 6l34 -12l162 345h307l169 -345l34 12
l-357 720zM357 663l138 -289h-273z" />
    <glyph glyph-name="AE" unicode="&#xc6;" horiz-adv-x="944" 
d="M-4 6l35 -12l232 345h258l51 -339h348l15 35h-333l-46 304h303v35h-308l-44 311h361l-10 35h-388zM472 666l44 -292h-233z" />
    <glyph glyph-name="Ccedilla" unicode="&#xc7;" horiz-adv-x="667" 
d="M627 88q-58 -38 -104 -54.5t-107 -16.5q-70 0 -132.5 26.5t-110 74t-74 110t-26.5 132.5t26.5 132.5t74 110t110 74t132.5 26.5q56 0 109.5 -19t98.5 -55l26 28q-51 38 -110.5 59.5t-128.5 21.5q-75 0 -143 -29t-120 -81t-81 -121t-29 -147t29 -147.5t81.5 -121.5
t121.5 -80.5t146 -28.5q62 0 122.5 21t111.5 60zM399 -178q16 23 25.5 48t9.5 45q0 10 -2 25.5t-5 25.5h-38q13 -35 13 -62q0 -18 -6.5 -33.5t-16.5 -31.5z" />
    <glyph glyph-name="Egrave" unicode="&#xc8;" 
d="M125 881l91 -118l27 12l-83 120zM75 0h342l18 35h-325v316h265v35h-265v299h301l-12 35h-324v-720z" />
    <glyph glyph-name="Eacute" unicode="&#xc9;" 
d="M284 895l-83 -120l27 -12l91 118zM75 0h342l18 35h-325v316h265v35h-265v299h301l-12 35h-324v-720z" />
    <glyph glyph-name="Ecircumflex" unicode="&#xca;" 
d="M151 763l71 97l71 -97l24 13l-82 119h-27l-81 -119zM75 0h342l18 35h-325v316h265v35h-265v299h301l-12 35h-324v-720z" />
    <glyph glyph-name="Edieresis" unicode="&#xcb;" 
d="M113 829l36 -36l36 36l-36 36zM259 829l36 -36l36 36l-36 36zM75 0h342l18 35h-325v316h265v35h-265v299h301l-12 35h-324v-720z" />
    <glyph glyph-name="Igrave" unicode="&#xcc;" horiz-adv-x="185" 
d="M-4 881l91 -118l27 12l-83 120zM110 726l-35 -12v-720l35 12v720z" />
    <glyph glyph-name="Iacute" unicode="&#xcd;" horiz-adv-x="185" 
d="M155 895l-83 -120l27 -12l91 118zM110 726l-35 -12v-720l35 12v720z" />
    <glyph glyph-name="Icircumflex" unicode="&#xce;" horiz-adv-x="185" 
d="M22 763l71 97l71 -97l24 13l-82 119h-27l-81 -119zM110 726l-35 -12v-720l35 12v720z" />
    <glyph glyph-name="Idieresis" unicode="&#xcf;" horiz-adv-x="185" 
d="M-16 829l36 -36l36 36l-36 36zM130 829l36 -36l36 36l-36 36zM110 726l-35 -12v-720l35 12v720z" />
    <glyph glyph-name="Eth" unicode="&#xd0;" horiz-adv-x="556" 
d="M70 0h38q106 0 183.5 32t126 84.5t70.5 116t22 127.5q0 81 -28.5 147.5t-79 114.5t-117 73t-141.5 25h-74v-334h-70v-35h70v-351zM105 685h20q74 0 138 -22.5t112 -65.5t74 -103.5t26 -133.5t-26 -133.5t-74 -103.5t-112 -65.5t-138 -22.5h-20v316h193v35h-193v299z" />
    <glyph glyph-name="Ntilde" unicode="&#xd1;" horiz-adv-x="759" 
d="M466 864q-9 -17 -20 -23.5t-17 -6.5q-10 0 -39 14l-7 3q-34 14 -49 14q-22 0 -41 -9.5t-29 -44.5l31 -6v0q8 14 14 19.5t17 5.5q13 0 41 -11q6 -3 9 -4q16 -8 28 -12t21 -4q25 0 41.5 13t29.5 37zM684 726l-35 -12v-634l-574 652v-738l35 12v638l574 -656v738z" />
    <glyph glyph-name="Ograve" unicode="&#xd2;" horiz-adv-x="832" 
d="M319 881l91 -118l27 12l-83 120zM73 360q0 70 26.5 132.5t74 110t110 74t132.5 26.5t132.5 -26.5t110 -74t74 -110t26.5 -132.5t-26.5 -132.5t-74 -110t-110 -74t-132.5 -26.5t-132.5 26.5t-110 74t-74 110t-26.5 132.5zM38 360q0 -77 29 -146t81.5 -121.5t121.5 -81.5
t146 -29t146 29t121.5 81.5t81.5 121.5t29 146t-29 146t-81.5 121.5t-121.5 81.5t-146 29t-146 -29t-121.5 -81.5t-81.5 -121.5t-29 -146z" />
    <glyph glyph-name="Oacute" unicode="&#xd3;" horiz-adv-x="832" 
d="M478 895l-83 -120l27 -12l91 118zM73 360q0 70 26.5 132.5t74 110t110 74t132.5 26.5t132.5 -26.5t110 -74t74 -110t26.5 -132.5t-26.5 -132.5t-74 -110t-110 -74t-132.5 -26.5t-132.5 26.5t-110 74t-74 110t-26.5 132.5zM38 360q0 -77 29 -146t81.5 -121.5t121.5 -81.5
t146 -29t146 29t121.5 81.5t81.5 121.5t29 146t-29 146t-81.5 121.5t-121.5 81.5t-146 29t-146 -29t-121.5 -81.5t-81.5 -121.5t-29 -146z" />
    <glyph glyph-name="Ocircumflex" unicode="&#xd4;" horiz-adv-x="832" 
d="M345 763l71 97l71 -97l24 13l-82 119h-27l-81 -119zM73 360q0 70 26.5 132.5t74 110t110 74t132.5 26.5t132.5 -26.5t110 -74t74 -110t26.5 -132.5t-26.5 -132.5t-74 -110t-110 -74t-132.5 -26.5t-132.5 26.5t-110 74t-74 110t-26.5 132.5zM38 360q0 -77 29 -146
t81.5 -121.5t121.5 -81.5t146 -29t146 29t121.5 81.5t81.5 121.5t29 146t-29 146t-81.5 121.5t-121.5 81.5t-146 29t-146 -29t-121.5 -81.5t-81.5 -121.5t-29 -146z" />
    <glyph glyph-name="Otilde" unicode="&#xd5;" horiz-adv-x="832" 
d="M502 864q-9 -17 -20 -23.5t-17 -6.5q-10 0 -39 14l-7 3q-34 14 -49 14q-22 0 -41 -9.5t-29 -44.5l31 -6v0q8 14 14 19.5t17 5.5q13 0 41 -11q6 -3 9 -4q16 -8 28 -12t21 -4q25 0 41.5 13t29.5 37zM73 360q0 70 26.5 132.5t74 110t110 74t132.5 26.5t132.5 -26.5t110 -74
t74 -110t26.5 -132.5t-26.5 -132.5t-74 -110t-110 -74t-132.5 -26.5t-132.5 26.5t-110 74t-74 110t-26.5 132.5zM38 360q0 -77 29 -146t81.5 -121.5t121.5 -81.5t146 -29t146 29t121.5 81.5t81.5 121.5t29 146t-29 146t-81.5 121.5t-121.5 81.5t-146 29t-146 -29
t-121.5 -81.5t-81.5 -121.5t-29 -146z" />
    <glyph glyph-name="Odieresis" unicode="&#xd6;" horiz-adv-x="832" 
d="M307 829l36 -36l36 36l-36 36zM453 829l36 -36l36 36l-36 36zM73 360q0 70 26.5 132.5t74 110t110 74t132.5 26.5t132.5 -26.5t110 -74t74 -110t26.5 -132.5t-26.5 -132.5t-74 -110t-110 -74t-132.5 -26.5t-132.5 26.5t-110 74t-74 110t-26.5 132.5zM38 360
q0 -77 29 -146t81.5 -121.5t121.5 -81.5t146 -29t146 29t121.5 81.5t81.5 121.5t29 146t-29 146t-81.5 121.5t-121.5 81.5t-146 29t-146 -29t-121.5 -81.5t-81.5 -121.5t-29 -146z" />
    <glyph glyph-name="multiply" unicode="&#xd7;" horiz-adv-x="600" 
d="M83 58l22 -22l195 195l195 -195l22 22l-195 195l195 195l-22 22l-195 -195l-195 195l-22 -22l195 -195z" />
    <glyph glyph-name="Oslash" unicode="&#xd8;" horiz-adv-x="832" 
d="M173 118q-47 48 -73.5 110.5t-26.5 131.5q0 70 26.5 132.5t74 110t110 74t132.5 26.5q62 0 118 -21t102 -59zM661 600q46 -48 72 -110t26 -130q0 -70 -26.5 -132.5t-74 -110t-110 -74t-132.5 -26.5q-60 0 -116 20.5t-102 57.5zM660 649q-50 42 -113 65.5t-131 23.5
q-77 0 -146 -29t-121.5 -81.5t-81.5 -121.5t-29 -146t29 -146t82 -122l-84 -92l24 -24l85 93q51 -42 113 -64.5t129 -22.5q77 0 146 29t121.5 81.5t81.5 121.5t29 146t-28.5 145t-80.5 121l78 85l-26 22z" />
    <glyph glyph-name="Ugrave" unicode="&#xd9;" horiz-adv-x="648" 
d="M227 881l91 -118l27 12l-83 120zM582 726l-35 -12v-454q0 -74 -24.5 -123t-61.5 -75t-74 -35.5t-67 -9.5q-97 0 -158 56t-61 154v499l-35 -12v-490q0 -64 23 -111t61 -76t82 -42t88 -13q36 0 71 10.5t66 29.5q60 37 87 92h3v-120l35 12v720z" />
    <glyph glyph-name="Uacute" unicode="&#xda;" horiz-adv-x="648" 
d="M386 895l-83 -120l27 -12l91 118zM582 726l-35 -12v-454q0 -74 -24.5 -123t-61.5 -75t-74 -35.5t-67 -9.5q-97 0 -158 56t-61 154v499l-35 -12v-490q0 -64 23 -111t61 -76t82 -42t88 -13q36 0 71 10.5t66 29.5q60 37 87 92h3v-120l35 12v720z" />
    <glyph glyph-name="Ucircumflex" unicode="&#xdb;" horiz-adv-x="648" 
d="M253 763l71 97l71 -97l24 13l-82 119h-27l-81 -119zM582 726l-35 -12v-454q0 -74 -24.5 -123t-61.5 -75t-74 -35.5t-67 -9.5q-97 0 -158 56t-61 154v499l-35 -12v-490q0 -64 23 -111t61 -76t82 -42t88 -13q36 0 71 10.5t66 29.5q60 37 87 92h3v-120l35 12v720z" />
    <glyph glyph-name="Udieresis" unicode="&#xdc;" horiz-adv-x="648" 
d="M215 829l36 -36l36 36l-36 36zM361 829l36 -36l36 36l-36 36zM582 726l-35 -12v-454q0 -74 -24.5 -123t-61.5 -75t-74 -35.5t-67 -9.5q-97 0 -158 56t-61 154v499l-35 -12v-490q0 -64 23 -111t61 -76t82 -42t88 -13q36 0 71 10.5t66 29.5q60 37 87 92h3v-120l35 12v720z
" />
    <glyph glyph-name="Yacute" unicode="&#xdd;" horiz-adv-x="556" 
d="M340 895l-83 -120l27 -12l91 118zM544 714l-32 12l-230 -453l-235 453l-35 -12l248 -478l-119 -230l35 -12z" />
    <glyph glyph-name="Thorn" unicode="&#xde;" 
d="M115 572h44q43 0 83.5 -14.5t72.5 -41.5t51 -66.5t19 -86.5q0 -49 -18 -88.5t-50 -66t-72.5 -40.5t-85.5 -14h-44v418zM80 -6l35 12v113h22q66 0 119.5 18.5t90 52t55 78t18.5 95.5t-18.5 95.5t-55 78t-90 52t-119.5 18.5h-22v119l-35 -12v-720z" />
    <glyph glyph-name="germandbls" unicode="&#xdf;" horiz-adv-x="426" 
d="M57 -6l35 12v556q0 67 29.5 99.5t86.5 32.5q61 0 98.5 -43.5t37.5 -106.5q0 -29 -8 -55.5t-29 -48.5t-58 -35.5t-93 -13.5v-32h13q34 0 63.5 -3.5t60.5 -19t52 -50.5t21 -94q0 -50 -18 -84.5t-45.5 -54t-55.5 -27.5t-49 -8q-11 0 -27.5 2.5t-26.5 5.5v-35q25 -5 48 -5
q44 0 81.5 15t65.5 42t43.5 64.5t15.5 81.5q0 78 -37 128t-110 57v2q19 5 37 13t39 26.5t35 50.5t14 78q0 81 -44 131.5t-128 50.5q-64 0 -105.5 -38.5t-41.5 -119.5v-574z" />
    <glyph glyph-name="agrave" unicode="&#xe0;" horiz-adv-x="352" 
d="M79 554l91 -118l27 12l-83 120zM295 285q0 17 -2 30.5t-11 27t-29 22.5t-54 9q-14 0 -47 -4q-3 -1 -7 -1l-12 -32q10 0 28 2q26 3 38 3q42 0 51.5 -16.5t9.5 -66.5v-57h-2q-13 21 -36 35.5t-63 14.5q-57 0 -94 -39.5t-37 -93.5q0 -57 38 -95t90 -38q41 0 63 15t42 41h2
v-48l32 12v279zM60 119q0 42 29.5 71.5t72.5 29.5q42 0 71.5 -29.5t29.5 -71.5t-29.5 -71.5t-71.5 -29.5q-43 0 -72.5 29.5t-29.5 71.5z" />
    <glyph glyph-name="aacute" unicode="&#xe1;" horiz-adv-x="352" 
d="M238 568l-83 -120l27 -12l91 118zM295 285q0 17 -2 30.5t-11 27t-29 22.5t-54 9q-14 0 -47 -4q-3 -1 -7 -1l-12 -32q10 0 28 2q26 3 38 3q42 0 51.5 -16.5t9.5 -66.5v-57h-2q-13 21 -36 35.5t-63 14.5q-57 0 -94 -39.5t-37 -93.5q0 -57 38 -95t90 -38q41 0 63 15t42 41h2
v-48l32 12v279zM60 119q0 42 29.5 71.5t72.5 29.5q42 0 71.5 -29.5t29.5 -71.5t-29.5 -71.5t-71.5 -29.5q-43 0 -72.5 29.5t-29.5 71.5z" />
    <glyph glyph-name="acircumflex" unicode="&#xe2;" horiz-adv-x="352" 
d="M105 436l71 97l71 -97l24 13l-82 119h-27l-81 -119zM295 285q0 17 -2 30.5t-11 27t-29 22.5t-54 9q-14 0 -47 -4q-3 -1 -7 -1l-12 -32q10 0 28 2q26 3 38 3q42 0 51.5 -16.5t9.5 -66.5v-57h-2q-13 21 -36 35.5t-63 14.5q-57 0 -94 -39.5t-37 -93.5q0 -57 38 -95t90 -38
q41 0 63 15t42 41h2v-48l32 12v279zM60 119q0 42 29.5 71.5t72.5 29.5q42 0 71.5 -29.5t29.5 -71.5t-29.5 -71.5t-71.5 -29.5q-43 0 -72.5 29.5t-29.5 71.5z" />
    <glyph glyph-name="atilde" unicode="&#xe3;" horiz-adv-x="352" 
d="M262 537q-9 -17 -20 -23.5t-17 -6.5q-10 0 -39 14l-7 3q-34 14 -49 14q-22 0 -41 -9.5t-29 -44.5l31 -6v0q8 14 14 19.5t17 5.5q13 0 41 -11q6 -3 9 -4q16 -8 28 -12t21 -4q25 0 41.5 13t29.5 37zM295 285q0 17 -2 30.5t-11 27t-29 22.5t-54 9q-14 0 -47 -4q-3 -1 -7 -1
l-12 -32q10 0 28 2q26 3 38 3q42 0 51.5 -16.5t9.5 -66.5v-57h-2q-13 21 -36 35.5t-63 14.5q-57 0 -94 -39.5t-37 -93.5q0 -57 38 -95t90 -38q41 0 63 15t42 41h2v-48l32 12v279zM60 119q0 42 29.5 71.5t72.5 29.5q42 0 71.5 -29.5t29.5 -71.5t-29.5 -71.5t-71.5 -29.5
q-43 0 -72.5 29.5t-29.5 71.5z" />
    <glyph glyph-name="adieresis" unicode="&#xe4;" horiz-adv-x="352" 
d="M67 502l36 -36l36 36l-36 36zM213 502l36 -36l36 36l-36 36zM295 285q0 17 -2 30.5t-11 27t-29 22.5t-54 9q-14 0 -47 -4q-3 -1 -7 -1l-12 -32q10 0 28 2q26 3 38 3q42 0 51.5 -16.5t9.5 -66.5v-57h-2q-13 21 -36 35.5t-63 14.5q-57 0 -94 -39.5t-37 -93.5q0 -57 38 -95
t90 -38q41 0 63 15t42 41h2v-48l32 12v279zM60 119q0 42 29.5 71.5t72.5 29.5q42 0 71.5 -29.5t29.5 -71.5t-29.5 -71.5t-71.5 -29.5q-43 0 -72.5 29.5t-29.5 71.5z" />
    <glyph glyph-name="aring" unicode="&#xe5;" horiz-adv-x="352" 
d="M110 484q0 -27 19.5 -46.5t46.5 -19.5t46.5 19.5t19.5 46.5t-19.5 46.5t-46.5 19.5t-46.5 -19.5t-19.5 -46.5zM134 484q0 17 12.5 29.5t29.5 12.5t29.5 -12.5t12.5 -29.5t-12.5 -29.5t-29.5 -12.5t-29.5 12.5t-12.5 29.5zM295 285q0 17 -2 30.5t-11 27t-29 22.5t-54 9
q-14 0 -47 -4q-3 -1 -7 -1l-12 -32q10 0 28 2q26 3 38 3q42 0 51.5 -16.5t9.5 -66.5v-57h-2q-13 21 -36 35.5t-63 14.5q-57 0 -94 -39.5t-37 -93.5q0 -57 38 -95t90 -38q41 0 63 15t42 41h2v-48l32 12v279zM60 119q0 42 29.5 71.5t72.5 29.5q42 0 71.5 -29.5t29.5 -71.5
t-29.5 -71.5t-71.5 -29.5q-43 0 -72.5 29.5t-29.5 71.5z" />
    <glyph glyph-name="ae" unicode="&#xe6;" horiz-adv-x="611" 
d="M60 119q0 42 29.5 71.5t72.5 29.5q42 0 71.5 -29.5t29.5 -71.5t-29.5 -71.5t-71.5 -29.5q-43 0 -72.5 29.5t-29.5 71.5zM572 64q-26 -26 -57.5 -36t-62.5 -10q-45 0 -83.5 26.5t-61.5 68.5l299 181q-20 35 -60.5 57.5t-91.5 22.5q-53 0 -93.5 -24t-64.5 -66h-2
q0 22 -2.5 37t-11.5 27t-29 19t-53 7q-14 0 -48 -4q-3 -1 -5 -1l-12 -32q10 0 28 2q26 3 38 3q42 0 51.5 -16.5t9.5 -66.5v-57h-2q-13 21 -36 35.5t-63 14.5q-57 0 -94 -39.5t-37 -93.5q0 -57 38 -95t90 -38q41 0 63 15t42 41h2v-48l29 12v65h2q25 -39 65.5 -62t92.5 -23
q38 0 72 12t48 26v40zM296 142q-4 20 -4 41q0 31 13 60t36 51t53.5 35t64.5 13q32 0 59.5 -13t38.5 -29z" />
    <glyph glyph-name="ccedilla" unicode="&#xe7;" horiz-adv-x="352" 
d="M342 66q-28 -24 -57.5 -36t-65.5 -12q-64 0 -111.5 44t-47.5 117q0 46 16 78t41.5 50.5t53 26.5t51.5 8q31 0 57.5 -8.5t53.5 -24.5l5 35q-20 12 -52 21t-64 9q-41 0 -76.5 -14.5t-62 -40.5t-41 -61.5t-14.5 -75.5q0 -48 16.5 -85.5t44 -62t59.5 -36.5t63 -12q37 0 73 12
t58 28v40zM199 -178q16 23 25.5 48t9.5 45q0 10 -2 25.5t-5 25.5h-38q13 -35 13 -62q0 -18 -6.5 -33.5t-16.5 -31.5z" />
    <glyph glyph-name="egrave" unicode="&#xe8;" horiz-adv-x="370" 
d="M88 554l91 -118l27 12l-83 120zM365 294q-20 35 -60.5 57.5t-91.5 22.5q-45 0 -81.5 -17t-62 -45.5t-38.5 -63.5t-13 -69q0 -33 13 -67.5t38 -63t61.5 -45.5t80.5 -17q38 0 72 12t48 26v40q-26 -26 -57.5 -36t-62.5 -10q-45 0 -83.5 26.5t-61.5 68.5zM55 142q-5 25 -5 41
q0 31 13 60t36.5 51.5t54 35t64.5 12.5q32 0 59.5 -13t38.5 -29z" />
    <glyph glyph-name="eacute" unicode="&#xe9;" horiz-adv-x="370" 
d="M247 568l-83 -120l27 -12l91 118zM365 294q-20 35 -60.5 57.5t-91.5 22.5q-45 0 -81.5 -17t-62 -45.5t-38.5 -63.5t-13 -69q0 -33 13 -67.5t38 -63t61.5 -45.5t80.5 -17q38 0 72 12t48 26v40q-26 -26 -57.5 -36t-62.5 -10q-45 0 -83.5 26.5t-61.5 68.5zM55 142
q-5 25 -5 41q0 31 13 60t36.5 51.5t54 35t64.5 12.5q32 0 59.5 -13t38.5 -29z" />
    <glyph glyph-name="ecircumflex" unicode="&#xea;" horiz-adv-x="370" 
d="M114 436l71 97l71 -97l24 13l-82 119h-27l-81 -119zM365 294q-20 35 -60.5 57.5t-91.5 22.5q-45 0 -81.5 -17t-62 -45.5t-38.5 -63.5t-13 -69q0 -33 13 -67.5t38 -63t61.5 -45.5t80.5 -17q38 0 72 12t48 26v40q-26 -26 -57.5 -36t-62.5 -10q-45 0 -83.5 26.5t-61.5 68.5z
M55 142q-5 25 -5 41q0 31 13 60t36.5 51.5t54 35t64.5 12.5q32 0 59.5 -13t38.5 -29z" />
    <glyph glyph-name="edieresis" unicode="&#xeb;" horiz-adv-x="370" 
d="M76 502l36 -36l36 36l-36 36zM222 502l36 -36l36 36l-36 36zM365 294q-20 35 -60.5 57.5t-91.5 22.5q-45 0 -81.5 -17t-62 -45.5t-38.5 -63.5t-13 -69q0 -33 13 -67.5t38 -63t61.5 -45.5t80.5 -17q38 0 72 12t48 26v40q-26 -26 -57.5 -36t-62.5 -10q-45 0 -83.5 26.5
t-61.5 68.5zM55 142q-5 25 -5 41q0 31 13 60t36.5 51.5t54 35t64.5 12.5q32 0 59.5 -13t38.5 -29z" />
    <glyph glyph-name="igrave" unicode="&#xec;" horiz-adv-x="149" 
d="M-22 554l91 -118l27 12l-83 120zM92 366l-35 -12v-360l35 12v360z" />
    <glyph glyph-name="iacute" unicode="&#xed;" horiz-adv-x="149" 
d="M137 568l-83 -120l27 -12l91 118zM92 366l-35 -12v-360l35 12v360z" />
    <glyph glyph-name="icircumflex" unicode="&#xee;" horiz-adv-x="149" 
d="M4 436l71 97l71 -97l24 13l-82 119h-27l-81 -119zM92 366l-35 -12v-360l35 12v360z" />
    <glyph glyph-name="idieresis" unicode="&#xef;" horiz-adv-x="149" 
d="M-34 502l36 -36l36 36l-36 36zM112 502l36 -36l36 36l-36 36zM92 366l-35 -12v-360l35 12v360z" />
    <glyph glyph-name="eth" unicode="&#xf0;" 
d="M60 180q0 33 12.5 62.5t35 52t52 35t62.5 12.5t62.5 -12.5t52 -35t35 -52t12.5 -62.5t-12.5 -62.5t-35 -52t-52 -35t-62.5 -12.5t-62.5 12.5t-52 35t-35 52t-12.5 62.5zM342 678l-111 -63q-55 61 -123 111l-32 -12q67 -51 125 -116l-109 -62l16 -24l113 64
q52 -61 90 -128t59 -138l-2 -2q-22 28 -63.5 47t-82.5 19q-39 0 -74.5 -15t-62.5 -42t-42 -62.5t-15 -74.5t15 -74.5t42 -62.5t62.5 -42t74.5 -15q37 0 71.5 12.5t62 39t44 68.5t16.5 98q0 102 -44.5 202t-121.5 187l108 61z" />
    <glyph glyph-name="ntilde" unicode="&#xf1;" horiz-adv-x="389" 
d="M281 537q-9 -17 -20 -23.5t-17 -6.5q-10 0 -39 14l-7 3q-34 14 -49 14q-22 0 -41 -9.5t-29 -44.5l31 -6v0q8 14 14 19.5t17 5.5q13 0 41 -11q6 -3 9 -4q16 -8 28 -12t21 -4q25 0 41.5 13t29.5 37zM53 -6l35 12v214q0 53 36 87.5t85 34.5q38 0 65 -24.5t27 -68.5v-255
l35 12v252q0 55 -36.5 85.5t-90.5 30.5q-39 0 -69.5 -17.5t-49.5 -46.5h-2v56l-35 -12v-360z" />
    <glyph glyph-name="ograve" unicode="&#xf2;" 
d="M125 554l91 -118l27 12l-83 120zM60 180q0 33 12.5 63t35 52.5t52 34.5t62.5 12t62.5 -12.5t52 -34.5t35 -52t12.5 -63t-12.5 -63t-35 -52t-52 -34.5t-62.5 -12.5t-62.5 12.5t-52 34.5t-35 52t-12.5 63zM28 180q0 -40 15 -75.5t42 -62t62.5 -41.5t74.5 -15q40 0 75.5 15
t62 41.5t41.5 62t15 75.5t-15 75.5t-41.5 62t-62 41.5t-75.5 15q-39 0 -74.5 -15t-62.5 -41.5t-42 -62t-15 -75.5z" />
    <glyph glyph-name="oacute" unicode="&#xf3;" 
d="M284 568l-83 -120l27 -12l91 118zM60 180q0 33 12.5 63t35 52.5t52 34.5t62.5 12t62.5 -12.5t52 -34.5t35 -52t12.5 -63t-12.5 -63t-35 -52t-52 -34.5t-62.5 -12.5t-62.5 12.5t-52 34.5t-35 52t-12.5 63zM28 180q0 -40 15 -75.5t42 -62t62.5 -41.5t74.5 -15q40 0 75.5 15
t62 41.5t41.5 62t15 75.5t-15 75.5t-41.5 62t-62 41.5t-75.5 15q-39 0 -74.5 -15t-62.5 -41.5t-42 -62t-15 -75.5z" />
    <glyph glyph-name="ocircumflex" unicode="&#xf4;" 
d="M151 436l71 97l71 -97l24 13l-82 119h-27l-81 -119zM60 180q0 33 12.5 63t35 52.5t52 34.5t62.5 12t62.5 -12.5t52 -34.5t35 -52t12.5 -63t-12.5 -63t-35 -52t-52 -34.5t-62.5 -12.5t-62.5 12.5t-52 34.5t-35 52t-12.5 63zM28 180q0 -40 15 -75.5t42 -62t62.5 -41.5
t74.5 -15q40 0 75.5 15t62 41.5t41.5 62t15 75.5t-15 75.5t-41.5 62t-62 41.5t-75.5 15q-39 0 -74.5 -15t-62.5 -41.5t-42 -62t-15 -75.5z" />
    <glyph glyph-name="otilde" unicode="&#xf5;" 
d="M308 537q-9 -17 -20 -23.5t-17 -6.5q-10 0 -39 14l-7 3q-34 14 -49 14q-22 0 -41 -9.5t-29 -44.5l31 -6v0q8 14 14 19.5t17 5.5q13 0 41 -11q6 -3 9 -4q16 -8 28 -12t21 -4q25 0 41.5 13t29.5 37zM60 180q0 33 12.5 63t35 52.5t52 34.5t62.5 12t62.5 -12.5t52 -34.5
t35 -52t12.5 -63t-12.5 -63t-35 -52t-52 -34.5t-62.5 -12.5t-62.5 12.5t-52 34.5t-35 52t-12.5 63zM28 180q0 -40 15 -75.5t42 -62t62.5 -41.5t74.5 -15q40 0 75.5 15t62 41.5t41.5 62t15 75.5t-15 75.5t-41.5 62t-62 41.5t-75.5 15q-39 0 -74.5 -15t-62.5 -41.5t-42 -62
t-15 -75.5z" />
    <glyph glyph-name="odieresis" unicode="&#xf6;" 
d="M113 502l36 -36l36 36l-36 36zM259 502l36 -36l36 36l-36 36zM60 180q0 33 12.5 63t35 52.5t52 34.5t62.5 12t62.5 -12.5t52 -34.5t35 -52t12.5 -63t-12.5 -63t-35 -52t-52 -34.5t-62.5 -12.5t-62.5 12.5t-52 34.5t-35 52t-12.5 63zM28 180q0 -40 15 -75.5t42 -62
t62.5 -41.5t74.5 -15q40 0 75.5 15t62 41.5t41.5 62t15 75.5t-15 75.5t-41.5 62t-62 41.5t-75.5 15q-39 0 -74.5 -15t-62.5 -41.5t-42 -62t-15 -75.5z" />
    <glyph glyph-name="divide" unicode="&#xf7;" horiz-adv-x="600" 
d="M47 237h506v32h-506v-32zM250 456q0 -21 14.5 -35.5t35.5 -14.5t35.5 14.5t14.5 35.5t-14.5 35.5t-35.5 14.5t-35.5 -14.5t-14.5 -35.5zM250 50q0 -21 14.5 -35.5t35.5 -14.5t35.5 14.5t14.5 35.5t-14.5 35.5t-35.5 14.5t-35.5 -14.5t-14.5 -35.5z" />
    <glyph glyph-name="oslash" unicode="&#xf8;" 
d="M103 70q-43 46 -43 110q0 33 12.5 63t35 52.5t52 34.5t62.5 12q27 0 52.5 -9t45.5 -24zM28 -13l20 -20l55 61q25 -20 55.5 -31t63.5 -11q40 0 75.5 15t62 41.5t41.5 62t15 75.5q0 39 -14 73.5t-39 60.5l53 59l-20 20l-55 -60q-52 41 -119 41q-39 0 -74.5 -15t-62.5 -41.5
t-42 -62t-15 -75.5q0 -39 14 -73.5t40 -60.5zM341 290q43 -46 43 -110q0 -33 -12.5 -63t-35 -52t-52 -34.5t-62.5 -12.5q-27 0 -52.5 9t-45.5 24z" />
    <glyph glyph-name="ugrave" unicode="&#xf9;" horiz-adv-x="389" 
d="M98 554l91 -118l27 12l-83 120zM336 366l-35 -12v-214q0 -52 -35.5 -87t-80.5 -35q-43 0 -70 24.5t-27 71.5v252l-35 -12v-252q0 -56 37 -86t95 -30q42 0 67.5 17.5t46.5 46.5h2v-56l35 12v360z" />
    <glyph glyph-name="uacute" unicode="&#xfa;" horiz-adv-x="389" 
d="M257 568l-83 -120l27 -12l91 118zM336 366l-35 -12v-214q0 -52 -35.5 -87t-80.5 -35q-43 0 -70 24.5t-27 71.5v252l-35 -12v-252q0 -56 37 -86t95 -30q42 0 67.5 17.5t46.5 46.5h2v-56l35 12v360z" />
    <glyph glyph-name="ucircumflex" unicode="&#xfb;" horiz-adv-x="389" 
d="M124 436l71 97l71 -97l24 13l-82 119h-27l-81 -119zM336 366l-35 -12v-214q0 -52 -35.5 -87t-80.5 -35q-43 0 -70 24.5t-27 71.5v252l-35 -12v-252q0 -56 37 -86t95 -30q42 0 67.5 17.5t46.5 46.5h2v-56l35 12v360z" />
    <glyph glyph-name="udieresis" unicode="&#xfc;" horiz-adv-x="389" 
d="M86 502l36 -36l36 36l-36 36zM232 502l36 -36l36 36l-36 36zM336 366l-35 -12v-214q0 -52 -35.5 -87t-80.5 -35q-43 0 -70 24.5t-27 71.5v252l-35 -12v-252q0 -56 37 -86t95 -30q42 0 67.5 17.5t46.5 46.5h2v-56l35 12v360z" />
    <glyph glyph-name="yacute" unicode="&#xfd;" horiz-adv-x="370" 
d="M247 568l-83 -120l27 -12l91 118zM170 42l-94 -182l32 -12l260 506l-32 12l-145 -286l-157 286l-32 -18z" />
    <glyph glyph-name="thorn" unicode="&#xfe;" horiz-adv-x="480" 
d="M420 180q0 -33 -12.5 -63t-35 -52t-52 -34.5t-62.5 -12.5t-62.5 12.5t-52 35t-35 52t-12.5 62.5t12.5 62.5t35 52t52 35t62.5 12.5t62.5 -12.5t52 -34.5t35 -52t12.5 -63zM64 -152l35 12v213h2q24 -40 65.5 -63.5t91.5 -23.5q40 0 75.5 15t62 41.5t41.5 62t15 75.5
t-15 75.5t-41.5 62t-62 41.5t-75.5 15q-50 0 -91 -23.5t-66 -66.5h-2v442l-35 -12v-866z" />
    <glyph glyph-name="ydieresis" unicode="&#xff;" horiz-adv-x="370" 
d="M76 502l36 -36l36 36l-36 36zM222 502l36 -36l36 36l-36 36zM170 42l-94 -182l32 -12l260 506l-32 12l-145 -286l-157 286l-32 -18z" />
    <glyph glyph-name="OE" unicode="&#x152;" horiz-adv-x="1000" 
d="M991 35h-261v304h200v35h-200v311h237l-10 35h-262v-219h-2q-38 107 -120 172t-192 65q-78 0 -142 -29.5t-109 -82.5t-68.5 -121.5t-23.5 -144.5t23.5 -144.5t68.5 -121.5t109 -82.5t142 -29.5q110 0 192 65t120 172h2v-219h281zM73 360q0 66 22 128t63 110.5t98.5 76.5
t124.5 28q68 0 125 -28t98 -76.5t63 -110.5t22 -128t-22 -127.5t-63 -110.5t-98 -77t-125 -28q-67 0 -124.5 28t-98.5 76.5t-63 110.5t-22 128z" />
    <glyph glyph-name="oe" unicode="&#x153;" horiz-adv-x="740" 
d="M60 180q0 33 12.5 62.5t35 52t52 35t62.5 12.5t62.5 -12.5t52 -35t35 -52t12.5 -62.5t-12.5 -62.5t-35 -52t-52 -35t-62.5 -12.5t-62.5 12.5t-52 35t-35 52t-12.5 62.5zM28 180q0 -39 15 -74.5t42 -62.5t62.5 -42t74.5 -15q61 0 110.5 34.5t69.5 88.5q20 -53 67 -88
t112 -35q38 0 72 12t48 26v40q-26 -26 -57.5 -36t-62.5 -10q-45 0 -83.5 26.5t-61.5 68.5l299 181q-20 35 -60.5 57.5t-91.5 22.5q-66 0 -113 -35t-68 -89q-20 55 -69.5 89.5t-110.5 34.5q-39 0 -74.5 -15t-62.5 -42t-42 -62.5t-15 -74.5zM425 142q-6 23 -6 41q0 31 13 60
t36.5 51.5t54.5 35t65 12.5q32 0 59.5 -13t38.5 -29z" />
    <glyph glyph-name="Scaron" unicode="&#x160;" 
d="M127 882l81 -119h27l82 119l-24 13l-71 -97l-71 97zM398 667q-31 30 -68.5 50.5t-95.5 20.5q-39 0 -73.5 -14.5t-60.5 -42t-40.5 -64t-14.5 -79.5q0 -44 13.5 -76.5t35.5 -54t47.5 -34.5t54.5 -21l44 -13q62 -18 96.5 -52t34.5 -98q0 -28 -10 -58t-30.5 -56t-52 -42
t-73.5 -16q-50 0 -85 26t-67 64q-1 1 -2 3l-26 -26l1 -1q15 -19 30.5 -34.5t37 -31t50 -25.5t61.5 -10q47 0 85 17.5t63.5 47.5t39 67t13.5 75q0 45 -12.5 76.5t-33 52t-44.5 32t-55 21.5l-61 19q-62 20 -91 57.5t-29 90.5q0 31 9.5 60t28.5 53t48 38t68 14q37 0 66.5 -12
t70.5 -50z" />
    <glyph glyph-name="scaron" unicode="&#x161;" horiz-adv-x="258" 
d="M34 555l81 -119h27l82 119l-24 13l-71 -97l-71 97zM223 331q-20 23 -41.5 33t-41.5 10q-44 0 -77.5 -28.5t-33.5 -77.5q0 -24 8 -41t21 -28t25.5 -16.5t33.5 -12.5v0h1q40 -13 58.5 -28.5t18.5 -53.5q0 -20 -8 -33.5t-19.5 -21.5t-24.5 -11.5t-23 -3.5q-24 0 -40.5 11
t-29.5 27l-22 -27q24 -21 44 -32t47 -11q53 0 82 34.5t29 75.5q0 26 -9 44t-25 30t-33 19t-44 17h-2q-31 10 -42 26t-11 44q0 30 23 48t48 18q24 0 40 -11.5t29 -28.5z" />
    <glyph glyph-name="Ydieresis" unicode="&#x178;" horiz-adv-x="556" 
d="M169 829l36 -36l36 36l-36 36zM315 829l36 -36l36 36l-36 36zM544 714l-32 12l-230 -453l-235 453l-35 -12l248 -478l-119 -230l35 -12z" />
    <glyph glyph-name="florin" unicode="&#x192;" horiz-adv-x="518" 
d="M196 86q-12 -56 -20.5 -86.5t-21 -54.5t-32 -37t-47.5 -13q-14 0 -29 6l-8 -35q18 -6 35 -6q37 0 63.5 18.5t42.5 47t24.5 56t17.5 65.5v0l72 318h89l8 32h-90l28 111q13 50 35.5 80.5t58.5 30.5q12 0 25.5 -2.5t22.5 -7.5l10 32q-7 5 -20.5 9t-24.5 4q-36 0 -62 -13
t-41.5 -35t-25 -49t-18.5 -64l-23 -96h-89l-8 -32h90z" />
    <glyph glyph-name="circumflex" unicode="&#x2c6;" horiz-adv-x="148" 
d="M3 436l71 97l71 -97l24 13l-82 119h-27l-81 -119z" />
    <glyph glyph-name="tilde" unicode="&#x2dc;" horiz-adv-x="148" 
d="M160 537q-9 -17 -20 -23.5t-17 -6.5q-10 0 -39 14l-7 3q-34 14 -49 14q-22 0 -41 -9.5t-29 -44.5l31 -6v0q8 14 14 19.5t17 5.5q13 0 41 -11q6 -3 9 -4q16 -8 28 -12t21 -4q25 0 41.5 13t29.5 37z" />
    <glyph glyph-name="endash" unicode="&#x2013;" horiz-adv-x="500" 
d="M0 174h500v32h-500v-32z" />
    <glyph glyph-name="emdash" unicode="&#x2014;" horiz-adv-x="1000" 
d="M0 174h1000v32h-1000v-32z" />
    <glyph glyph-name="quoteleft" unicode="&#x2018;" horiz-adv-x="148" 
d="M8 464l40 8l92 248h-32z" />
    <glyph glyph-name="quoteright" unicode="&#x2019;" horiz-adv-x="148" 
d="M140 728l-40 -8l-92 -248h32z" />
    <glyph glyph-name="quotesinglbase" unicode="&#x201a;" horiz-adv-x="148" 
d="M140 116l-40 -8l-92 -248h32z" />
    <glyph glyph-name="quotedblleft" unicode="&#x201c;" horiz-adv-x="296" 
d="M18 464l40 8l92 248h-32zM146 464l40 8l92 248h-32z" />
    <glyph glyph-name="quotedblright" unicode="&#x201d;" horiz-adv-x="296" 
d="M278 728l-40 -8l-92 -248h32zM150 728l-40 -8l-92 -248h32z" />
    <glyph glyph-name="quotedblbase" unicode="&#x201e;" horiz-adv-x="296" 
d="M278 116l-40 -8l-92 -248h32zM150 116l-40 -8l-92 -248h32z" />
    <glyph glyph-name="dagger" unicode="&#x2020;" horiz-adv-x="388" 
d="M178 462h-156v-32h156v-436l32 12v424h156v32h-156v198l-32 -12v-186z" />
    <glyph glyph-name="daggerdbl" unicode="&#x2021;" horiz-adv-x="388" 
d="M178 490h-156v-32h156v-266h-156v-32h156v-166l32 12v154h156v32h-156v266h156v32h-156v170l-32 -12v-158z" />
    <glyph glyph-name="bullet" unicode="&#x2022;" horiz-adv-x="500" 
d="M70 360q0 -37 14 -69.5t39 -57.5t57.5 -39t69.5 -14t69.5 14t57.5 39t39 57.5t14 69.5t-14 69.5t-39 57.5t-57.5 39t-69.5 14t-69.5 -14t-57.5 -39t-39 -57.5t-14 -69.5z" />
    <glyph glyph-name="ellipsis" unicode="&#x2026;" horiz-adv-x="1000" 
d="M167 -6l36 36l-36 36l-36 -36zM500 -6l36 36l-36 36l-36 -36zM833 -6l36 36l-36 36l-36 -36z" />
    <glyph glyph-name="perthousand" unicode="&#x2030;" horiz-adv-x="1000" 
d="M75 479q0 66 28.5 107t71.5 41t71.5 -41t28.5 -107t-28.5 -107t-71.5 -41t-71.5 41t-28.5 107zM591 654h-35l-474 -662h35zM725 167q0 66 28.5 107t71.5 41t71.5 -41t28.5 -107t-28.5 -107t-71.5 -41t-71.5 41t-28.5 107zM48 479q0 -81 36 -128t91 -47t91 47t36 128
q0 82 -36 128.5t-91 46.5t-91 -46.5t-36 -128.5zM698 167q0 -81 36 -128t91 -47t91 47t36 128q0 82 -36 128.5t-91 46.5t-91 -46.5t-36 -128.5zM374 167q0 -81 36 -128t91 -47t91 47t36 128q0 82 -36 128.5t-91 46.5t-91 -46.5t-36 -128.5zM401 167q0 66 28.5 107t71.5 41
t71.5 -41t28.5 -107t-28.5 -107t-71.5 -41t-71.5 41t-28.5 107z" />
    <glyph glyph-name="guilsinglleft" unicode="&#x2039;" horiz-adv-x="204" 
d="M31 180l122 -121l20 20l-102 101l102 101l-20 20z" />
    <glyph glyph-name="guilsinglright" unicode="&#x203a;" horiz-adv-x="204" 
d="M173 180l-122 121l-20 -20l102 -101l-102 -101l20 -20z" />
    <glyph glyph-name="trademark" unicode="&#x2122;" horiz-adv-x="1000" 
d="M194 308h32v380h144v32h-320v-32h144v-380zM450 308h32v380h2l166 -380h20l166 380h2v-380h32v412h-54l-156 -358l-156 358h-54v-412z" />
    </font>
</defs>
</svg>
